<svg width="24" height="24" viewBox="0 0 24 24" fill="none" xmlns="http://www.w3.org/2000/svg">
<path fill-rule="evenodd" clip-rule="evenodd" d="M22.75 12C22.75 6.063 17.937 1.25 12 1.25C6.063 1.25 1.25 6.063 1.25 12C1.25 13.718 1.654 15.345 2.372 16.787C2.479 17.002 2.502 17.222 2.452 17.407L1.857 19.633C1.449 21.157 2.843 22.551 4.367 22.143L6.593 21.547C6.80252 21.4974 7.02295 21.5258 7.213 21.627C8.69997 22.3675 10.3388 22.752 12 22.75C17.937 22.75 22.75 17.937 22.75 12ZM12 2.75C14.4533 2.75 16.806 3.72455 18.5407 5.45926C20.2754 7.19397 21.25 9.54675 21.25 12C21.25 14.4533 20.2754 16.806 18.5407 18.5407C16.806 20.2754 14.4533 21.25 12 21.25C10.5711 21.2522 9.16119 20.9218 7.882 20.285C7.3648 20.0205 6.76878 19.954 6.206 20.098L3.979 20.694C3.88574 20.7189 3.78758 20.7188 3.69437 20.6937C3.60117 20.6687 3.51619 20.6195 3.448 20.5512C3.3798 20.4829 3.33077 20.3979 3.30585 20.3046C3.28092 20.2114 3.28098 20.1132 3.306 20.02L3.902 17.794C4.04604 17.2312 3.97954 16.6352 3.715 16.118C3.0782 14.8388 2.74782 13.4289 2.75 12C2.75 9.54675 3.72455 7.19397 5.45926 5.45926C7.19397 3.72455 9.54675 2.75 12 2.75Z" fill="black"/>
</svg>
