<svg width="24" height="24" viewBox="0 0 24 24" fill="none" xmlns="http://www.w3.org/2000/svg">
<path fill-rule="evenodd" clip-rule="evenodd" d="M22.295 6.30998C22.3857 6.34877 22.4678 6.40506 22.5367 6.47563C22.6056 6.5462 22.6599 6.62967 22.6965 6.72126C22.7331 6.81285 22.7513 6.91075 22.75 7.00937C22.7487 7.10799 22.728 7.20539 22.689 7.29598L22 6.99998L22.69 7.29598L22.688 7.29998L22.685 7.30698L22.675 7.33098L22.636 7.41498C22.4178 7.86818 22.1751 8.30917 21.909 8.73598C21.3756 9.59391 20.7571 10.396 20.063 11.13L21.031 12.099C21.1635 12.2412 21.2356 12.4292 21.2322 12.6235C21.2287 12.8178 21.15 13.0032 21.0126 13.1406C20.8752 13.278 20.6898 13.3567 20.4955 13.3602C20.3012 13.3636 20.1132 13.2915 19.971 13.159L18.97 12.159C18.2737 12.7459 17.5104 13.2484 16.696 13.656L17.63 15.091C17.7385 15.2578 17.7762 15.4609 17.735 15.6555C17.6937 15.8502 17.5768 16.0205 17.41 16.129C17.2432 16.2375 17.0401 16.2752 16.8454 16.234C16.6508 16.1927 16.4805 16.0758 16.372 15.909L15.283 14.235C14.503 14.49 13.66 14.663 12.751 14.725V16.5C12.751 16.6989 12.672 16.8897 12.5313 17.0303C12.3907 17.171 12.1999 17.25 12.001 17.25C11.8021 17.25 11.6113 17.171 11.4707 17.0303C11.33 16.8897 11.251 16.6989 11.251 16.5V14.725C10.4153 14.6687 9.58939 14.5123 8.791 14.259L7.717 15.909C7.66329 15.9916 7.59384 16.0628 7.5126 16.1186C7.43137 16.1743 7.33995 16.2135 7.24356 16.234C7.14718 16.2544 7.04771 16.2556 6.95084 16.2376C6.85397 16.2196 6.7616 16.1827 6.679 16.129C6.51218 16.0205 6.39528 15.8502 6.35402 15.6555C6.33359 15.5592 6.33235 15.4597 6.35036 15.3628C6.36837 15.266 6.40529 15.1736 6.459 15.091L7.372 13.689C6.55114 13.2853 5.78137 12.7851 5.079 12.199L4.119 13.159C3.97761 13.2957 3.7882 13.3714 3.59155 13.3697C3.3949 13.3681 3.20675 13.2893 3.06763 13.1503C2.92851 13.0114 2.84954 12.8233 2.84774 12.6266C2.84594 12.43 2.92145 12.2405 3.058 12.099L3.982 11.175C2.99999 10.1459 2.16903 8.98263 1.514 7.71998C1.44841 7.59209 1.38573 7.46272 1.326 7.33198L1.316 7.30698L1.312 7.29998V7.29698H1.31C1.2315 7.11412 1.22885 6.90656 1.30265 6.72174C1.37644 6.53692 1.52063 6.38899 1.7035 6.31048C1.88637 6.23198 2.09293 6.22934 2.27775 6.30313C2.46256 6.37693 2.6105 6.52112 2.689 6.70398V6.70598L2.696 6.71998L2.725 6.78298C2.9202 7.18679 3.13719 7.57971 3.375 7.95998C3.85 8.71998 4.572 9.70698 5.555 10.622C6.422 11.427 7.483 12.168 8.752 12.656C9.78858 13.0533 10.8899 13.2547 12 13.25C13.1332 13.2549 14.2571 13.0448 15.312 12.631C16.574 12.134 17.628 11.388 18.487 10.582C19.6355 9.49143 20.5799 8.20457 21.276 6.78198L21.304 6.71898L21.31 6.70598M22.295 6.30998C22.1123 6.23188 21.906 6.23051 21.7215 6.30438C21.537 6.37826 21.3893 6.52234 21.311 6.70498L22.295 6.30998Z" fill="black"/>
</svg>
