<svg width="11" height="11" viewBox="0 0 11 11" fill="none" xmlns="http://www.w3.org/2000/svg">
<path fill-rule="evenodd" clip-rule="evenodd" d="M5.49998 0.916626C3.47506 0.916626 1.83331 2.75133 1.83331 4.81246C1.83331 6.85754 3.00344 9.08046 4.82944 9.93388C5.03932 10.0322 5.26823 10.0831 5.49998 10.0831C5.73173 10.0831 5.96064 10.0322 6.17052 9.93388C7.99652 9.08046 9.16665 6.85754 9.16665 4.81246C9.16665 2.75133 7.5249 0.916626 5.49998 0.916626ZM5.49998 5.49996C5.74309 5.49996 5.97625 5.40338 6.14816 5.23147C6.32007 5.05957 6.41665 4.82641 6.41665 4.58329C6.41665 4.34018 6.32007 4.10702 6.14816 3.93511C5.97625 3.7632 5.74309 3.66663 5.49998 3.66663C5.25686 3.66663 5.02371 3.7632 4.8518 3.93511C4.67989 4.10702 4.58331 4.34018 4.58331 4.58329C4.58331 4.82641 4.67989 5.05957 4.8518 5.23147C5.02371 5.40338 5.25686 5.49996 5.49998 5.49996Z" fill="white"/>
</svg>
