<svg width="32" height="32" viewBox="0 0 32 32" fill="none" xmlns="http://www.w3.org/2000/svg">
<path d="M11.136 26.9893C11.7162 27.723 12.4556 28.3152 13.2982 28.7213C14.1408 29.1273 15.0647 29.3366 16 29.3333C16.9354 29.3366 17.8593 29.1273 18.7019 28.7213C19.5445 28.3152 20.2838 27.723 20.864 26.9893C17.6361 27.4268 14.3639 27.4268 11.136 26.9893ZM25 12V12.9386C25 14.0653 25.32 15.1666 25.9227 16.104L27.4 18.4013C28.748 20.5 27.7187 23.352 25.3734 24.0146C19.245 25.7506 12.755 25.7506 6.62669 24.0146C4.28135 23.352 3.25202 20.5 4.60002 18.4013L6.07736 16.104C6.68212 15.1591 7.00283 14.0605 7.00135 12.9386V12C7.00135 6.84529 11.0307 2.66663 16 2.66663C20.9694 2.66663 25 6.84529 25 12Z" fill="#E5E5E5"/>
</svg>
