<svg width="32" height="32" viewBox="0 0 32 32" fill="none" xmlns="http://www.w3.org/2000/svg">
<path fill-rule="evenodd" clip-rule="evenodd" d="M19.0387 2.86929C18.5453 2.66663 17.9187 2.66663 16.6667 2.66663C15.4147 2.66663 14.7893 2.66663 14.2947 2.86929C13.6379 3.13891 13.1152 3.65831 12.8413 4.31329C12.716 4.61063 12.668 4.95863 12.648 5.46396C12.6391 5.8301 12.537 6.18792 12.3513 6.50359C12.1655 6.81925 11.9024 7.08234 11.5867 7.26796C11.265 7.44676 10.9034 7.54149 10.5354 7.54335C10.1673 7.54522 9.8048 7.45416 9.48133 7.27863C9.03066 7.04129 8.70399 6.91063 8.38133 6.86796C7.6754 6.77527 6.96142 6.96503 6.39466 7.39596C5.97066 7.71863 5.65733 8.25729 5.03199 9.33329C4.40533 10.4093 4.09333 10.9466 4.02266 11.4733C3.92933 12.1746 4.12133 12.884 4.55599 13.4453C4.75333 13.7013 5.03199 13.916 5.46266 14.1853C6.09866 14.5813 6.50666 15.256 6.50666 16C6.50666 16.744 6.09866 17.4186 5.46399 17.8133C5.03199 18.084 4.75333 18.2986 4.55466 18.5546C4.3401 18.8319 4.18262 19.1489 4.09131 19.4874C3.99999 19.8259 3.97666 20.1791 4.02266 20.5266C4.09333 21.052 4.40533 21.5906 5.03199 22.6666C5.65866 23.7426 5.97066 24.28 6.39466 24.604C6.95999 25.0346 7.67466 25.224 8.38133 25.132C8.70399 25.0893 9.03066 24.9586 9.48133 24.7213C9.80496 24.5455 10.1677 24.4543 10.536 24.4562C10.9043 24.4581 11.2662 24.5529 11.588 24.732C12.236 25.1053 12.62 25.792 12.648 26.536C12.668 27.0426 12.716 27.3893 12.8413 27.6866C13.1133 28.34 13.636 28.86 14.2947 29.1306C14.788 29.3333 15.4147 29.3333 16.6667 29.3333C17.9187 29.3333 18.5453 29.3333 19.0387 29.1306C19.6954 28.861 20.2182 28.3416 20.492 27.6866C20.6173 27.3893 20.6653 27.0426 20.6853 26.536C20.712 25.792 21.0973 25.104 21.7467 24.732C22.0683 24.5532 22.4299 24.4584 22.798 24.4566C23.166 24.4547 23.5285 24.5458 23.852 24.7213C24.3027 24.9586 24.6293 25.0893 24.952 25.132C25.6587 25.2253 26.3733 25.0346 26.9387 24.604C27.3627 24.2813 27.676 23.7426 28.3013 22.6666C28.928 21.5906 29.24 21.0533 29.3107 20.5266C29.3565 20.179 29.3329 19.8257 29.2414 19.4872C29.1498 19.1488 28.9921 18.8318 28.7773 18.5546C28.58 18.2986 28.3013 18.084 27.8707 17.8146C27.2347 17.4186 26.8267 16.744 26.8267 16C26.8267 15.256 27.2347 14.5813 27.8693 14.1866C28.3013 13.916 28.58 13.7013 28.7787 13.4453C28.9932 13.168 29.1507 12.851 29.242 12.5125C29.3333 12.1741 29.3567 11.8208 29.3107 11.4733C29.24 10.948 28.928 10.4093 28.3013 9.33329C27.6747 8.25729 27.3627 7.71996 26.9387 7.39596C26.3719 6.96503 25.6579 6.77527 24.952 6.86796C24.6293 6.91063 24.3027 7.04129 23.852 7.27863C23.5284 7.4544 23.1656 7.54558 22.7973 7.54372C22.429 7.54185 22.0672 7.447 21.7453 7.26796C21.4299 7.08217 21.167 6.81902 20.9815 6.50336C20.796 6.1877 20.6941 5.82997 20.6853 5.46396C20.6653 4.95729 20.6173 4.61063 20.492 4.31329C20.3565 3.98894 20.1584 3.69447 19.909 3.4467C19.6596 3.19894 19.3639 3.00273 19.0387 2.86929ZM16.6667 20C18.8933 20 20.6973 18.2093 20.6973 16C20.6973 13.7906 18.892 12 16.6667 12C14.44 12 12.636 13.7906 12.636 16C12.636 18.2093 14.4413 20 16.6667 20Z" fill="#E5E5E5"/>
</svg>
